<svg xmlns="http://www.w3.org/2000/svg" viewBox="0 0 120 100" role="img" aria-label="SPIO Systems icon">
  <defs>
    <linearGradient id="g1" x1="0%" y1="0%" x2="100%" y2="100%">
      <stop offset="0%" stop-color="#F7A840"/>
      <stop offset="100%" stop-color="#E9573D"/>
    </linearGradient>
    <linearGradient id="g2" x1="0%" y1="0%" x2="100%" y2="100%">
      <stop offset="0%" stop-color="#E9573D"/>
      <stop offset="100%" stop-color="#E91E8C"/>
    </linearGradient>
    <linearGradient id="g3" x1="0%" y1="0%" x2="100%" y2="100%">
      <stop offset="0%" stop-color="#E91E8C"/>
      <stop offset="100%" stop-color="#9B2DE8"/>
    </linearGradient>
    <linearGradient id="g4" x1="0%" y1="0%" x2="100%" y2="100%">
      <stop offset="0%" stop-color="#9B2DE8"/>
      <stop offset="100%" stop-color="#7B4FE0"/>
    </linearGradient>
  </defs>

  <!-- Layer 4 — bottom purple -->
  <path d="M53,45 Q60,42 67,45 L113,67 Q120,70 113,73 L67,95 Q60,98 53,95 L7,73 Q0,70 7,67 Z"
        fill="url(#g4)" stroke="rgba(255,255,255,0.45)" stroke-width="1.5"/>
  <!-- Layer 3 — magenta -->
  <path d="M53,31 Q60,28 67,31 L113,53 Q120,56 113,59 L67,81 Q60,84 53,81 L7,59 Q0,56 7,53 Z"
        fill="url(#g3)" stroke="rgba(255,255,255,0.45)" stroke-width="1.5"/>
  <!-- Layer 2 — coral -->
  <path d="M53,17 Q60,14 67,17 L113,39 Q120,42 113,45 L67,67 Q60,70 53,67 L7,45 Q0,42 7,39 Z"
        fill="url(#g2)" stroke="rgba(255,255,255,0.45)" stroke-width="1.5"/>
  <!-- Layer 1 — top orange -->
  <path d="M53,3 Q60,0 67,3 L113,25 Q120,28 113,31 L67,53 Q60,56 53,53 L7,31 Q0,28 7,25 Z"
        fill="url(#g1)" stroke="rgba(255,255,255,0.45)" stroke-width="1.5"/>
</svg>
